<svg aria-hidden="true" style="position: absolute; width: 0; height: 0; overflow: hidden; " version="1.1" xmlns="http://www.w3.org/2000/svg" xmlns:xlink="http://www.w3.org/1999/xlink">
<defs>
<symbol id="telegram" viewBox="0 0 24 24">
<title>telegram</title>
<path d="M11.944 0A12 12 0 0 0 0 12a12 12 0 0 0 12 12 12 12 0 0 0 12-12A12 12 0 0 0 12 0a12 12 0 0 0-.056 0zm4.962 7.224c.1-.002.321.023.465.14a.506.506 0 0 1 .171.325c.016.093.036.306.02.472-.18 1.898-.962 6.502-1.36 8.627-.168.9-.499 1.201-.82 1.23-.696.065-1.225-.46-1.9-.902-1.056-.693-1.653-1.124-2.678-1.8-1.185-.78-.417-1.21.258-1.91.177-.184 3.247-2.977 3.307-3.23.007-.032.014-.15-.056-.212s-.174-.041-.249-.024c-.106.024-1.793 1.14-5.061 3.345-.48.33-.913.49-1.302.48-.428-.008-1.252-.241-1.865-.44-.752-.245-1.349-.374-1.297-.789.027-.216.325-.437.893-.663 3.498-1.524 5.83-2.529 6.998-3.014 3.332-1.386 4.025-1.627 4.476-1.635z"/>
</symbol>
<symbol id="telegram-1" viewBox="0 0 24 24" style="fill-rule:evenodd;clip-rule:evenodd;stroke-linejoin:round;stroke-miterlimit:1.41421;">
<title>telegram-1</title>
<path d="M12,0c-6.627,0 -12,5.373 -12,12c0,6.627 5.373,12 12,12c6.627,0 12,-5.373 12,-12c0,-6.627 -5.373,-12 -12,-12Zm0,2c5.514,0 10,4.486 10,10c0,5.514 -4.486,10 -10,10c-5.514,0 -10,-4.486 -10,-10c0,-5.514 4.486,-10 10,-10Zm2.692,14.889c0.161,0.115 0.368,0.143 0.553,0.073c0.185,-0.07 0.322,-0.228 0.362,-0.42c0.435,-2.042 1.489,-7.211 1.884,-9.068c0.03,-0.14 -0.019,-0.285 -0.129,-0.379c-0.11,-0.093 -0.263,-0.12 -0.399,-0.07c-2.096,0.776 -8.553,3.198 -11.192,4.175c-0.168,0.062 -0.277,0.223 -0.271,0.4c0.006,0.177 0.125,0.33 0.296,0.381c1.184,0.354 2.738,0.847 2.738,0.847c0,0 0.725,2.193 1.104,3.308c0.047,0.139 0.157,0.25 0.301,0.287c0.145,0.038 0.298,-0.001 0.406,-0.103c0.608,-0.574 1.548,-1.461 1.548,-1.461c0,0 1.786,1.309 2.799,2.03Zm-5.505,-4.338l0.84,2.769l0.186,-1.754c0,0 3.243,-2.925 5.092,-4.593c0.055,-0.048 0.062,-0.13 0.017,-0.188c-0.045,-0.057 -0.126,-0.071 -0.188,-0.032c-2.143,1.368 -5.947,3.798 -5.947,3.798Z"/>
</symbol>
<symbol id="email" viewBox="0 0 24 24">
<title>email</title>
<path d="M12 2.02c5.514 0 10 4.486 10 10s-4.486 10-10 10-10-4.486-10-10 4.486-10 10-10zm0-2c-6.627 0-12 5.373-12 12s5.373 12 12 12 12-5.373 12-12-5.373-12-12-12zm0 12.55l-5.992-4.57h11.983l-5.991 4.57zm0 1.288l-6-4.629v6.771h12v-6.771l-6 4.629z"/>
</symbol>
<symbol id="phone" viewBox="0 0 24 24">
<title>phone</title>
<path d="M12 2c5.514 0 10 4.486 10 10s-4.486 10-10 10-10-4.486-10-10 4.486-10 10-10zm0-2c-6.627 0-12 5.373-12 12s5.373 12 12 12 12-5.373 12-12-5.373-12-12-12zm4.5 17.311l-1.76-3.397-1.032.505c-1.12.543-3.4-3.91-2.305-4.497l1.042-.513-1.747-3.409-1.053.52c-3.601 1.877 2.117 12.991 5.8 11.308l1.055-.517z"/>
</symbol>
<symbol id="whatsapp" viewBox="0 0 24 24">
<title>whatsapp</title>
<path d="M17.472 14.382c-.297-.149-1.758-.867-2.03-.967-.273-.099-.471-.148-.67.15-.197.297-.767.966-.94 1.164-.173.199-.347.223-.644.075-.297-.15-1.255-.463-2.39-1.475-.883-.788-1.48-1.761-1.653-2.059-.173-.297-.018-.458.13-.606.134-.133.298-.347.446-.52.149-.174.198-.298.298-.497.099-.198.05-.371-.025-.52-.075-.149-.669-1.612-.916-2.207-.242-.579-.487-.5-.669-.51-.173-.008-.371-.01-.57-.01-.198 0-.52.074-.792.372-.272.297-1.04 1.016-1.04 2.479 0 1.462 1.065 2.875 1.213 3.074.149.198 2.096 3.2 5.077 4.487.709.306 1.262.489 1.694.625.712.227 1.36.195 1.871.118.571-.085 1.758-.719 2.006-1.413.248-.694.248-1.289.173-1.413-.074-.124-.272-.198-.57-.347m-5.421 7.403h-.004a9.87 9.87 0 01-5.031-1.378l-.361-.214-3.741.982.998-3.648-.235-.374a9.86 9.86 0 01-1.51-5.26c.001-5.45 4.436-9.884 9.888-9.884 2.64 0 5.122 1.03 6.988 2.898a9.825 9.825 0 012.893 6.994c-.003 5.45-4.437 9.884-9.885 9.884m8.413-18.297A11.815 11.815 0 0012.05 0C5.495 0 .16 5.335.157 11.892c0 2.096.547 4.142 1.588 5.945L.057 24l6.305-1.654a11.882 11.882 0 005.683 1.448h.005c6.554 0 11.89-5.335 11.893-11.893a11.821 11.821 0 00-3.48-8.413Z"/>
</symbol>
<symbol id="viber" viewBox="0 0 24 24">
<title>viber</title>
<path d="M12 0c-6.627 0-12 5.373-12 12s5.373 12 12 12 12-5.373 12-12-5.373-12-12-12zm0 2c5.514 0 10 4.486 10 10s-4.486 10-10 10-10-4.486-10-10 4.486-10 10-10zm4.645 5.906c-.314-.289-1.585-1.211-4.415-1.224 0 0-3.338-.201-4.965 1.292-.905.905-1.224 2.23-1.258 3.874-.033 1.644-.077 4.723 2.892 5.558l.003.001-.002 1.274s-.019.516.321.622c.411.127.652-.265 1.044-.688.216-.232.513-.573.737-.833 2.03.17 3.592-.22 3.769-.277.41-.134 2.73-.431 3.107-3.51.389-3.175-.189-5.183-1.233-6.089zm.344 5.86c-.319 2.571-2.199 2.733-2.546 2.845-.148.047-1.52.388-3.244.276 0 0-1.285 1.55-1.686 1.953-.063.063-.137.089-.186.077-.069-.017-.088-.099-.087-.219l.011-2.117h-.001c-2.511-.698-2.364-3.319-2.336-4.692.029-1.372.287-2.497 1.053-3.253 1.376-1.247 4.211-1.06 4.211-1.06 2.394.01 3.541.731 3.807.973.883.756 1.333 2.565 1.004 5.217zm-4.519.154s.225.02.346-.13l.237-.297c.113-.148.388-.242.658-.092.356.202.817.518 1.133.812.174.148.214.364.096.592l-.001.004c-.122.216-.285.417-.492.606l-.004.003c-.232.194-.499.306-.784.213l-.006-.008c-.512-.144-1.741-.771-2.525-1.396-1.282-1.012-2.193-2.68-2.445-3.574l-.008-.005c-.093-.286.02-.553.213-.784l.004-.005c.188-.206.39-.369.605-.491l.005-.001c.228-.119.444-.079.591.096.193.199.557.68.812 1.133.15.269.056.544-.091.658l-.298.236c-.15.121-.13.346-.13.346s.44 1.664 2.084 2.084zm2.589-1.379h-.002c-.088 0-.159-.071-.16-.159-.007-.965-.297-1.734-.861-2.285-.566-.551-1.28-.833-2.124-.839-.088-.001-.159-.073-.158-.161 0-.088.072-.159.16-.159h.001c.929.007 1.718.32 2.344.93.628.613.95 1.458.958 2.511.001.089-.07.161-.158.162zm-.843-.329h-.003c-.089-.002-.159-.076-.157-.164.013-.547-.144-.99-.477-1.354-.333-.364-.789-.562-1.395-.606-.088-.007-.154-.083-.148-.171.006-.089.083-.155.171-.148.682.05 1.223.288 1.608.709.386.422.575.952.561 1.577-.002.087-.073.157-.16.157zm-.821-.276c-.085 0-.155-.066-.16-.152-.027-.543-.283-.809-.805-.837-.088-.005-.156-.08-.151-.168.005-.089.08-.156.168-.152.69.038 1.073.432 1.108 1.141.004.089-.064.164-.152.168h-.008z"/>
</symbol>
<symbol id="github"  viewBox="0 0 24 24" enable-background="new 0 0 24 24" xml:space="preserve">
<title>github</title>
<path d="M15.5,22.7c0,0-0.1,0-0.1,0l-0.1-0.1l0-0.6c0-0.6,0-1.5,0-2.5c0-0.7-0.1-1.3-0.4-1.8c2.3-0.4,4.8-1.6,4.8-6.1
	c0-1.2-0.4-2.3-1.1-3.2c0.2-0.6,0.3-1.7-0.2-3.1c-0.1-0.1-0.2-0.2-0.3-0.3c0,0-0.2-0.1-0.4-0.1c-0.6,0-1.5,0.2-3,1.2
	C13.9,6,13,5.8,12,5.8c-1,0-1.9,0.1-2.8,0.3C7.8,5.2,6.8,5,6.2,5C6,5,5.9,5.1,5.8,5.1c-0.1,0-0.3,0.2-0.3,0.3C5,6.8,5.1,7.9,5.3,8.5
	c-0.7,0.9-1.1,2-1.1,3.2c0,4.4,2.6,5.6,4.8,6.1c-0.1,0.2-0.2,0.5-0.3,0.8c-0.2,0.1-0.5,0.2-0.9,0.2c-0.4,0-0.8-0.1-1.1-0.4
	c0,0-0.1-0.1-0.1-0.1c0,0,0,0,0,0c-0.1-0.1-0.1-0.2-0.2-0.2c0,0,0,0,0,0c0,0,0,0,0,0l-0.1-0.1c0,0-0.1-0.1-0.1-0.1
	c0-0.1-0.8-1.3-2.2-1.4c-0.5,0-0.9,0.2-1,0.5c-0.2,0.5,0.4,0.9,0.7,1.1c0,0,0.6,0.3,1,1.4c0.2,0.7,1.1,2,3.2,2c0.2,0,0.4,0,0.7,0
	l0,1.4l-0.1,0.1c0,0-0.1,0,0,0C4,21.2,1,17,1,12.3c0-6.1,4.9-11,11-11s11,4.9,11,11C23,17,20,21.2,15.5,22.7z"/>
</symbol>
</defs>
</svg>